<?xml version="1.0" encoding="utf-8"?>
<!-- Generator: Adobe Illustrator 23.0.1, SVG Export Plug-In . SVG Version: 6.00 Build 0)  -->
<svg version="1.1" id="Layer_1" xmlns="http://www.w3.org/2000/svg" xmlns:xlink="http://www.w3.org/1999/xlink"
	 viewBox="0 0 297.94 102" style="enable-background:new 0 0 297.94 102;" xml:space="preserve">
<path fill="#fff" d="M126,0C113.26,0.71,23.73,7.61,17.47,57.3c-0.76,5.31-1.19,10.65-1.47,15.99l44.02-35.6c1.54-1.25,4.04-1.25,5.57,0
	c1.54,1.25,1.54,3.26,0,4.51L1.73,93.84c-2.31,1.87-2.31,4.89,0,6.76s6.05,1.87,8.36,0l14.06-11.37c10.36-0.03,20.71-0.5,31-1.47
	c13.16-1.08,23.88-5.27,32.63-11.26H62.94l36.12-9.74c2.77-2.97,5.26-6.12,7.49-9.39H86.59l26.22-10.6
	C123.12,26.47,125.55,5.23,126,0z"/>
<g>
	<path fill="#fff" d="M144.87,18.48c0.61-1.56,1.13-3.32,1.56-5.26s0.64-3.55,0.64-4.82c0-0.83-0.2-1.24-0.59-1.24c-0.36,0-1.02,0.48-1.97,1.43
		c-1.42,1.53-2.69,3.29-3.8,5.29s-1.96,4.03-2.55,6.11s-0.89,4.11-0.89,6.09c0,1.56,0.17,2.63,0.5,3.21s0.97,0.87,1.91,0.87
		c0.81,0,1.82-0.23,3.02-0.68c2.72-1.08,5.59-2.62,8.63-4.62c1.34-0.86,2.2-1.29,2.55-1.29c0.52,0,0.77,0.26,0.77,0.77v0.05
		c-0.08,0.7-0.32,1.5-0.73,2.39c-0.81,1.72-1.52,2.84-2.11,3.38c-1,0.89-2.37,1.77-4.11,2.63s-3.53,1.56-5.36,2.11
		s-3.36,0.82-4.59,0.82c-1.42,0-2.77-0.27-4.03-0.81s-2.37-1.28-3.3-2.21s-1.67-2.03-2.2-3.28s-0.8-2.59-0.8-4.01
		c0-1.08,0.17-2.25,0.52-3.5s0.84-2.57,1.5-3.95s1.4-2.66,2.23-3.87c0.48-0.72,0.99-1.41,1.51-2.06s1.1-1.3,1.73-1.92
		s1.32-1.23,2.07-1.8s1.44-1.07,2.06-1.48c1.09-0.73,2.23-1.38,3.4-1.92s2.26-0.95,3.26-1.22s1.91-0.4,2.74-0.4
		c2.05,0,3.65,0.53,4.8,1.59S155,7.4,155,9.27c0,1.97-0.48,4.03-1.45,6.18s-2.26,4.03-3.87,5.64c-1.11,1.14-2.21,2.04-3.3,2.7
		s-2.08,0.98-2.95,0.98c-0.77,0-1.15-0.37-1.15-1.1c0-0.34,0.21-0.82,0.63-1.43C143.5,21.39,144.15,20.14,144.87,18.48z"/>
	<path fill="#fff" d="M172.67,6.9V6.53c0-0.58-0.08-0.87-0.23-0.87c-0.2,0-0.52,0.31-0.95,0.94s-0.82,1.32-1.16,2.09
		c-0.86,1.95-1.62,4.02-2.27,6.2s-1.16,4.36-1.52,6.53c-0.13,0.84-0.26,1.76-0.4,2.74l0.12,0.09c1.56-1.61,2.73-2.75,3.49-3.42
		s1.76-1.44,2.98-2.3c1.53-1.06,2.8-1.59,3.8-1.59c0.64,0,1.14,0.23,1.49,0.69s0.53,1.1,0.53,1.91c0,0.47-0.09,1.14-0.28,2.02
		c-0.33,1.84-0.49,3.4-0.49,4.66c0,0.58,0.05,1.19,0.14,1.83c0.08,0.5,0.34,1.51,0.77,3.02c0.36,1.16,0.54,1.8,0.54,1.92
		c0,0.22-0.26,0.48-0.77,0.8c-1.66,1.09-3.18,1.64-4.57,1.64c-1.14,0-2.07-0.56-2.78-1.67c-0.71-1.11-1.07-2.56-1.07-4.34
		c0-0.7,0.07-1.56,0.21-2.56l-0.12-0.09c-2.22,2.29-3.7,3.83-4.45,4.63c-2.78,2.69-4.92,4.03-6.42,4.03c-0.69,0-1.25-0.46-1.7-1.37
		s-0.67-2.11-0.67-3.57c0-3.16,0.98-7.19,2.93-12.09c0.78-1.91,1.61-3.73,2.48-5.47s1.71-3.25,2.51-4.51
		c0.58-0.89,1.18-1.67,1.82-2.33s1.27-1.22,1.92-1.66s1.31-0.78,1.98-1s1.34-0.33,2.02-0.33c1.67,0,3.04,0.52,4.09,1.55
		s1.58,2.35,1.58,3.96c0,1.13-0.32,2.32-0.96,3.59s-1.54,2.47-2.7,3.61c-0.73,0.72-1.57,1.36-2.5,1.91s-1.65,0.83-2.17,0.83
		c-0.16,0-0.3-0.05-0.42-0.16s-0.19-0.25-0.19-0.42c0-0.23,0.2-0.74,0.61-1.52c0.47-0.86,0.93-1.91,1.38-3.15s0.8-2.42,1.04-3.54
		S172.67,7.67,172.67,6.9z"/>
	<path fill="#fff" d="M196.53,11.9c2.33,0,3.49,0.27,3.49,0.82c0,0.63-0.52,0.96-1.57,1.01c-1.27,0.08-2.45,0.44-3.54,1.08s-2.07,1.52-2.92,2.63
		s-1.52,2.36-1.99,3.75s-0.71,2.86-0.71,4.41c0,1.7,0.4,3.07,1.2,4.11s1.84,1.56,3.12,1.56c1.19,0,2.23-0.61,3.12-1.83
		s1.34-2.64,1.34-4.27c0-1.33-0.28-2.57-0.83-3.74s-1.36-2.14-2.43-2.94c-0.45-0.36-0.68-0.62-0.68-0.77c0-0.22,0.32-0.55,0.96-1.01
		c0.72-0.48,1.52-0.89,2.41-1.22s1.64-0.49,2.25-0.49c0.7,0,1.37,0.18,2,0.55s1.19,0.89,1.68,1.57s0.86,1.46,1.11,2.34
		s0.39,1.82,0.39,2.82c0,1.66-0.31,3.29-0.94,4.91s-1.45,2.93-2.46,3.93c-1.31,1.27-2.89,2.3-4.75,3.11s-3.61,1.21-5.29,1.21
		c-1.63,0-3.24-0.28-4.84-0.84s-2.87-1.3-3.81-2.23c-1.25-1.25-1.88-3.02-1.88-5.32c0-1.81,0.45-3.63,1.34-5.44s2.1-3.46,3.62-4.93
		s3.2-2.64,5.04-3.49S194.65,11.9,196.53,11.9z"/>
	<path fill="#fff" d="M219.75,12.86c1.19,0.05,2.13,0.39,2.84,1.03s1.05,1.5,1.05,2.58c0,0.94-0.27,1.88-0.81,2.84s-1.22,1.73-2.04,2.34
		s-1.64,0.91-2.47,0.91c-0.48,0-0.73-0.17-0.73-0.52c0-0.13,0.09-0.4,0.28-0.82c0.61-1.03,0.91-2.22,0.91-3.56
		c0-0.67-0.08-1.01-0.23-1.01c-0.22,0-0.53,0.28-0.94,0.84s-0.75,1.23-1.03,1.99c-0.48,1.2-0.89,2.48-1.21,3.84
		s-0.48,2.51-0.48,3.45c0,1.06,0.16,1.9,0.48,2.51s0.77,0.91,1.35,0.91c0.53,0,1.24-0.28,2.13-0.84s1.73-1.26,2.53-2.09
		c0.33-0.42,0.62-0.63,0.87-0.63c0.38,0,0.56,0.21,0.56,0.63c0,1.92-0.75,3.66-2.25,5.23c-1.03,1.03-2.21,1.86-3.55,2.5
		s-2.54,0.95-3.6,0.95c-1.86,0-3.41-0.59-4.64-1.76s-1.85-2.65-1.85-4.43s0.39-3.65,1.18-5.61s1.87-3.82,3.23-5.59
		s2.92-3.24,4.65-4.43c1.25-0.84,2.47-1.27,3.66-1.27H219.75z"/>
	<path fill="#fff" d="M241.01,11.9c2.33,0,3.49,0.27,3.49,0.82c0,0.63-0.52,0.96-1.57,1.01c-1.27,0.08-2.45,0.44-3.54,1.08s-2.07,1.52-2.92,2.63
		s-1.52,2.36-1.99,3.75s-0.71,2.86-0.71,4.41c0,1.7,0.4,3.07,1.2,4.11s1.84,1.56,3.12,1.56c1.19,0,2.23-0.61,3.12-1.83
		s1.34-2.64,1.34-4.27c0-1.33-0.28-2.57-0.83-3.74s-1.36-2.14-2.43-2.94c-0.45-0.36-0.68-0.62-0.68-0.77c0-0.22,0.32-0.55,0.96-1.01
		c0.72-0.48,1.52-0.89,2.41-1.22s1.64-0.49,2.25-0.49c0.7,0,1.37,0.18,2,0.55s1.19,0.89,1.68,1.57s0.86,1.46,1.11,2.34
		s0.39,1.82,0.39,2.82c0,1.66-0.31,3.29-0.94,4.91s-1.45,2.93-2.46,3.93c-1.31,1.27-2.89,2.3-4.75,3.11s-3.61,1.21-5.29,1.21
		c-1.63,0-3.24-0.28-4.84-0.84s-2.87-1.3-3.81-2.23c-1.25-1.25-1.88-3.02-1.88-5.32c0-1.81,0.45-3.63,1.34-5.44s2.1-3.46,3.62-4.93
		s3.2-2.64,5.04-3.49S239.14,11.9,241.01,11.9z"/>
	<path fill="#fff" d="M264.87,25.49c-0.39,0.13-0.66,0.19-0.82,0.19c-0.55,0-1-0.2-1.35-0.61s-0.53-0.92-0.53-1.55c0-1.23,0.44-2.83,1.31-4.78
		s1.8-3.4,2.77-4.34c0.7-0.7,1.5-1.05,2.39-1.05c0.69,0,1.28,0.23,1.78,0.69s0.88,1.13,1.15,1.99s0.4,1.88,0.4,3.04
		c0,2.91-0.61,5.63-1.83,8.18s-2.84,4.58-4.88,6.09s-4.21,2.27-6.54,2.27c-1.52,0-2.84-0.36-3.96-1.08s-2-1.75-2.61-3.11
		s-0.93-2.92-0.93-4.7c0-1.69,0.27-3.58,0.82-5.68s1.31-4.24,2.3-6.42s2.16-4.3,3.52-6.36c1.44-2.23,3.09-3.98,4.95-5.23
		c1.28-0.91,2.63-1.36,4.03-1.36c1.44,0,2.59,0.44,3.45,1.31s1.29,2.04,1.29,3.49c0,1.03-0.39,2.11-1.18,3.25s-1.78,2.07-2.98,2.8
		s-2.36,1.1-3.5,1.1c-0.55,0-0.82-0.14-0.82-0.42c0-0.22,0.23-0.62,0.68-1.2c0.75-0.94,1.38-2.02,1.9-3.25s0.77-2.29,0.77-3.2
		c0-0.83-0.13-1.24-0.38-1.24c-0.31,0-0.8,0.52-1.45,1.55s-1.24,2.21-1.76,3.54c-1.22,3.19-2.16,6.21-2.81,9.08
		s-0.98,5.31-0.98,7.32c0,1.52,0.25,2.79,0.74,3.83s1.09,1.56,1.79,1.56c0.89,0,1.63-0.5,2.23-1.51S264.76,27.29,264.87,25.49z"/>
	<path fill="#fff" d="M289.55,11.9c2.33,0,3.49,0.27,3.49,0.82c0,0.63-0.52,0.96-1.57,1.01c-1.27,0.08-2.45,0.44-3.54,1.08s-2.07,1.52-2.92,2.63
		s-1.52,2.36-1.99,3.75s-0.71,2.86-0.71,4.41c0,1.7,0.4,3.07,1.2,4.11s1.84,1.56,3.12,1.56c1.19,0,2.23-0.61,3.12-1.83
		s1.34-2.64,1.34-4.27c0-1.33-0.28-2.57-0.83-3.74s-1.36-2.14-2.43-2.94c-0.45-0.36-0.68-0.62-0.68-0.77c0-0.22,0.32-0.55,0.96-1.01
		c0.72-0.48,1.52-0.89,2.41-1.22s1.64-0.49,2.25-0.49c0.7,0,1.37,0.18,2,0.55s1.19,0.89,1.68,1.57s0.86,1.46,1.11,2.34
		s0.39,1.82,0.39,2.82c0,1.66-0.31,3.29-0.94,4.91s-1.45,2.93-2.46,3.93c-1.31,1.27-2.89,2.3-4.75,3.11s-3.61,1.21-5.29,1.21
		c-1.63,0-3.24-0.28-4.84-0.84s-2.87-1.3-3.81-2.23c-1.25-1.25-1.88-3.02-1.88-5.32c0-1.81,0.45-3.63,1.34-5.44s2.1-3.46,3.62-4.93
		s3.2-2.64,5.04-3.49S287.68,11.9,289.55,11.9z"/>
	<path fill="#fff" d="M170.37,76.08c0.61-1.56,1.13-3.32,1.56-5.26s0.64-3.55,0.64-4.82c0-0.83-0.2-1.24-0.59-1.24c-0.36,0-1.02,0.48-1.97,1.43
		c-1.42,1.53-2.69,3.29-3.8,5.29s-1.96,4.03-2.55,6.11s-0.89,4.11-0.89,6.09c0,1.56,0.17,2.63,0.5,3.21s0.97,0.87,1.91,0.87
		c0.81,0,1.82-0.23,3.02-0.68c2.72-1.08,5.59-2.62,8.63-4.62c1.34-0.86,2.2-1.29,2.55-1.29c0.52,0,0.77,0.26,0.77,0.77v0.05
		c-0.08,0.7-0.32,1.5-0.73,2.39c-0.81,1.72-1.52,2.84-2.11,3.38c-1,0.89-2.37,1.77-4.11,2.63s-3.53,1.56-5.36,2.11
		s-3.36,0.82-4.59,0.82c-1.42,0-2.77-0.27-4.03-0.81s-2.37-1.28-3.3-2.21s-1.67-2.03-2.2-3.28s-0.8-2.59-0.8-4.01
		c0-1.08,0.17-2.25,0.52-3.5s0.84-2.57,1.5-3.95s1.4-2.66,2.23-3.87c0.48-0.72,0.99-1.41,1.51-2.06s1.1-1.3,1.73-1.92
		s1.32-1.23,2.07-1.8s1.44-1.07,2.06-1.48c1.09-0.73,2.23-1.38,3.4-1.92s2.26-0.95,3.26-1.22s1.91-0.4,2.74-0.4
		c2.05,0,3.65,0.53,4.8,1.59s1.73,2.53,1.73,4.41c0,1.97-0.48,4.03-1.45,6.18s-2.26,4.03-3.87,5.64c-1.11,1.14-2.21,2.04-3.3,2.7
		s-2.08,0.98-2.95,0.98c-0.77,0-1.15-0.37-1.15-1.1c0-0.34,0.21-0.82,0.63-1.43C169,78.99,169.65,77.74,170.37,76.08z"/>
	<path fill="#fff" d="M198.45,86.25v0.09l-0.09-0.09c-1.45,1.7-2.79,3.1-4,4.18s-2.33,1.9-3.35,2.45s-1.96,0.82-2.82,0.82
		c-1.75,0-3.2-0.59-4.34-1.76s-1.71-2.66-1.71-4.45c0-1.11,0.28-2.42,0.84-3.94s1.34-3,2.32-4.45c1.64-2.38,3.7-4.39,6.19-6.05
		c2.56-1.7,5.03-2.55,7.41-2.55c2,0,3.64,0.41,4.93,1.23s1.93,1.86,1.93,3.11c0,0.92-0.32,1.9-0.96,2.93c0.84,0,1.38,0.09,1.59,0.27
		s0.33,0.6,0.33,1.25c0-0.06-0.04,0.26-0.12,0.96c-0.09,1.55-0.14,2.99-0.14,4.34c0,0.7,0.01,1.23,0.02,1.59s0.05,0.77,0.09,1.24
		s0.09,0.84,0.14,1.13c0.13,0.73,0.33,1.46,0.61,2.18c-0.94,0.92-1.84,1.6-2.7,2.03s-1.73,0.64-2.63,0.64
		c-2.41,0-3.61-2.02-3.61-6.05C198.4,86.89,198.42,86.52,198.45,86.25z M199.86,80.89l-0.45,0.14c-1.13,0.31-1.94,0.47-2.44,0.47
		c-0.61,0-0.91-0.16-0.91-0.47c0-0.11,0.13-0.4,0.38-0.87c0.88-1.33,1.31-2.58,1.31-3.75c0-0.67-0.12-1.29-0.35-1.84
		s-0.49-0.83-0.77-0.83c-0.25,0-0.63,0.27-1.15,0.8c-1.45,1.58-2.61,3.2-3.46,4.85s-1.28,3.13-1.28,4.43c0,0.86,0.18,1.57,0.53,2.13
		s0.79,0.84,1.32,0.84c0.45,0,1.3-0.48,2.54-1.45s2.64-2.25,4.18-3.84l0.63-0.52L199.86,80.89z"/>
	<path fill="#fff" d="M217.5,88.03l-0.05,1.29c-0.22,3.11-0.5,5.64-0.84,7.59c-0.34,1.95-0.73,3.15-1.17,3.59c-0.59,0.64-1.52,0.96-2.79,0.96
		c-1.36,0-2.33-0.27-2.93-0.8c-0.23-0.27-0.39-0.51-0.47-0.73c-0.08-0.22-0.12-0.62-0.12-1.2v-0.21V98.3v-0.28
		c0.05-4.39,0.47-8.8,1.27-13.24s1.85-8.48,3.16-12.13s2.75-6.54,4.31-8.67s3.12-3.2,4.66-3.2c0.7,0,1.23,0.24,1.58,0.71
		s0.53,1.16,0.53,2.05c0,1.33-0.14,2.74-0.42,4.23s-0.62,2.71-1.02,3.64s-0.8,1.41-1.21,1.41c-0.38,0-0.56-0.66-0.56-1.97v-0.45
		v-0.28c0-1.31-0.03-2.17-0.08-2.58c-0.05-0.41-0.17-0.68-0.36-0.82c-0.17,0.34-0.29,0.74-0.37,1.2c-0.38,1.88-0.69,3.57-0.92,5.09
		c-0.24,1.52-0.59,3.98-1.07,7.38c-0.02,0.19-0.04,0.4-0.07,0.63c-0.03,0.23-0.06,0.45-0.07,0.63h0.33
		c0.19-0.02,0.36-0.03,0.52-0.04s0.4-0.01,0.73-0.01c0.59-0.08,1.13-0.12,1.6-0.12c1.86,0,2.8,0.48,2.8,1.45
		c0,0.5-0.18,1.11-0.53,1.82c-0.35,0.71-0.77,1.3-1.25,1.77s-1.04,0.81-1.65,1.02c-0.62,0.21-1.51,0.36-2.66,0.43
		c-0.25,0-0.43,0-0.53,0.01S217.62,88.02,217.5,88.03z"/>
	<path fill="#fff" d="M234.64,86.54c0.17,0.94,0.78,1.41,1.83,1.41c1.17,0,2.7-0.69,4.57-2.06c1.09-0.8,1.83-1.2,2.2-1.2
		c0.47,0,0.91,0.13,1.31,0.38s0.61,0.51,0.61,0.77c0,0.28-0.23,0.65-0.68,1.1c-0.83,0.83-1.78,1.64-2.86,2.43s-2.12,1.45-3.12,1.97
		s-2,0.94-3,1.24s-1.89,0.46-2.67,0.46c-1.95,0-3.52-0.56-4.69-1.68s-1.76-2.61-1.76-4.46c0-1.42,0.31-3.03,0.93-4.82
		s1.45-3.46,2.5-5.03c1.23-1.83,2.75-3.35,4.55-4.57c2.22-1.47,4.34-2.2,6.38-2.2c1.47,0,2.62,0.46,3.46,1.39s1.25,2.21,1.25,3.83
		c0,1.27-0.33,2.59-1,3.96s-1.64,2.7-2.94,3.96c-1.06,1.06-2.11,1.89-3.13,2.48s-1.92,0.89-2.68,0.89
		C235.35,86.79,235,86.71,234.64,86.54z M234.59,85.79c0.72-0.48,1.27-0.97,1.64-1.45c0.83-1.02,1.47-2.18,1.92-3.49
		c0.36-0.86,0.64-1.82,0.84-2.88s0.3-2.05,0.3-2.98c0-0.86-0.18-1.29-0.54-1.29c-0.5,0-1.27,1.1-2.3,3.3
		c-0.61,1.33-1.11,2.65-1.49,3.97s-0.57,2.46-0.57,3.41C234.4,84.71,234.46,85.18,234.59,85.79z M238.27,63.94
		c0.7-0.75,1.5-1.8,2.39-3.16c0.42-0.63,0.68-0.99,0.77-1.1s0.27-0.21,0.52-0.3c0.67-0.23,1.56-0.48,2.67-0.75s1.85-0.4,2.23-0.4
		c0.48,0,0.73,0.21,0.73,0.63c0,0.92-0.87,2.2-2.6,3.84c-1.33,1.28-2.64,2.26-3.94,2.93s-2.54,1.01-3.73,1.01
		c-0.67,0-1.01-0.24-1.01-0.73c0-0.19,0.06-0.35,0.19-0.49s0.37-0.34,0.73-0.61C237.37,64.7,237.72,64.41,238.27,63.94z"/>
</g>
</svg>
